<?xml version="1.0" standalone="no"?>
<!DOCTYPE svg PUBLIC "-//W3C//DTD SVG 20010904//EN"
 "http://www.w3.org/TR/2001/REC-SVG-20010904/DTD/svg10.dtd">
<svg version="1.0" xmlns="http://www.w3.org/2000/svg"
 width="485.000000pt" height="485.000000pt" viewBox="0 0 485.000000 485.000000"
 preserveAspectRatio="xMidYMid meet">
<metadata>
Created by potrace 1.11, written by Peter Selinger 2001-2013
</metadata>
<g transform="translate(0.000000,485.000000) scale(0.100000,-0.100000)"
fill="#000000" stroke="none">
<path d="M1606 3353 c26 -48 55 -101 64 -118 10 -16 45 -82 78 -145 34 -63
106 -198 160 -299 l99 -185 82 -64 c44 -35 81 -60 81 -57 0 7 -77 151 -90 170
-4 6 -29 51 -55 100 -26 50 -78 144 -115 210 -69 123 -107 192 -192 350 -27
50 -52 97 -57 105 -5 9 -26 16 -55 18 l-47 3 47 -88z"/>
<path d="M1780 3420 c6 -11 105 -181 221 -377 233 -395 241 -409 277 -473 14
-25 33 -57 43 -72 11 -14 19 -28 19 -31 0 -3 19 -36 43 -74 l43 -70 134 230
c74 127 146 250 160 273 22 37 67 114 131 224 169 289 215 366 221 368 5 2 8
8 8 13 0 5 -69 9 -158 9 l-157 0 -20 -37 c-11 -21 -62 -112 -112 -202 -51 -90
-93 -165 -93 -167 0 -2 -20 -38 -45 -80 -25 -41 -45 -79 -45 -82 0 -4 -7 -15
-14 -25 -12 -16 -23 -2 -102 140 -90 163 -96 174 -159 283 -20 36 -41 74 -46
85 -5 11 -17 34 -27 50 l-19 30 -157 3 c-154 2 -157 2 -146 -18z"/>
<path d="M3190 3432 c0 -7 -79 -152 -322 -592 -17 -30 -50 -92 -75 -137 -25
-46 -49 -83 -54 -83 -5 0 -9 -7 -9 -16 0 -8 -14 -40 -31 -71 -34 -61 -32 -60
68 15 74 56 73 54 233 357 23 44 52 98 65 120 12 22 40 74 62 115 22 41 65
123 96 181 32 58 57 109 57 113 0 3 -20 6 -45 6 -25 0 -45 -4 -45 -8z"/>
<path d="M3520 2610 c-9 -6 -10 -10 -3 -10 6 0 15 5 18 10 8 12 4 12 -15 0z"/>
<path d="M4720 2610 c-9 -6 -10 -10 -3 -10 6 0 15 5 18 10 8 12 4 12 -15 0z"/>
<path d="M1131 2204 c0 -11 3 -14 6 -6 3 7 2 16 -1 19 -3 4 -6 -2 -5 -13z"/>
<path d="M2731 2204 c0 -11 3 -14 6 -6 3 7 2 16 -1 19 -3 4 -6 -2 -5 -13z"/>
<path d="M2210 2016 c0 -19 172 -423 183 -430 28 -18 68 23 100 100 55 132
127 327 123 331 -3 3 -20 1 -38 -3 -18 -4 -36 -7 -40 -6 -5 1 -7 -1 -6 -6 1
-4 -4 -18 -9 -32 -6 -14 -30 -74 -53 -135 -23 -60 -45 -116 -49 -122 -4 -7
-30 49 -60 127 -30 77 -62 147 -72 156 -14 12 -79 29 -79 20z"/>
</g>
</svg>
